<svg xmlns="http://www.w3.org/2000/svg" viewBox="0 0 24 24" fill="currentColor">
  <path d="M12.017.003C5.396.003 0 5.399 0 12.02c0 4.988 3.045 9.263 7.38 11.08-.102-.941-.192-2.386.04-3.414.21-.929 1.355-5.91 1.355-5.91s-.345-.69-.345-1.71c0-1.603.93-2.8 2.087-2.8.984 0 1.46.738 1.46 1.622 0 .988-.63 2.464-.955 3.833-.273 1.148.576 2.084 1.708 2.084 2.05 0 3.625-2.162 3.625-5.282 0-2.76-1.984-4.69-4.817-4.69-3.282 0-5.208 2.462-5.208 5.005 0 .991.381 2.056.857 2.634a.345.345 0 0 1 .08.33c-.09.363-.292 1.148-.332 1.309-.052.214-.174.26-.402.157-1.498-.698-2.436-2.888-2.436-4.646 0-3.784 2.75-7.26 7.93-7.26 4.163 0 7.4 2.967 7.4 6.93 0 4.135-2.606 7.463-6.223 7.463-1.215 0-2.357-.63-2.747-1.378l-.747 2.847c-.27 1.04-1.003 2.34-1.494 3.134A12.02 12.02 0 0 0 24.035 12.02C24.035 5.399 18.64.003 12.017.003"/>
</svg>
