<svg xmlns="http://www.w3.org/2000/svg" viewBox="0 0 24 24" fill="currentColor">
  <path d="M24 12c0 6.627-5.373 12-12 12S0 18.627 0 12 5.373 0 12 0s12 5.373 12 12zm-5.314-.116c0-.962-.78-1.742-1.742-1.742-.446 0-.853.169-1.161.446-1.129-.764-2.673-1.259-4.361-1.316l.925-2.908 2.521.59a1.307 1.307 0 1 0 .303-.94l-2.863-.67a.582.582 0 0 0-.692.391l-1.034 3.242c-1.756.052-3.369.55-4.541 1.323a1.731 1.731 0 0 0-1.176-.468c-.962 0-1.742.78-1.742 1.742 0 .71.425 1.32 1.034 1.592a3.867 3.867 0 0 0-.062.685c0 2.671 3.004 4.834 6.709 4.834 3.705 0 6.709-2.163 6.709-4.834 0-.228-.023-.455-.068-.675a1.75 1.75 0 0 0 1.241-1.67ZM9.157 13.978a1.125 1.125 0 1 0 0-2.25 1.125 1.125 0 0 0 0 2.25Zm5.765-1.125a1.125 1.125 0 1 1-2.25 0 1.125 1.125 0 0 1 2.25 0Zm-5.393 3.288c.432.431 1.278.645 2.471.645 1.193 0 2.039-.214 2.47-.645a.51.51 0 0 0-.721-.721c-.222.222-.708.346-1.749.346s-1.528-.124-1.75-.346a.51.51 0 1 0-.721.721Z"/>
</svg>
