<svg xmlns="http://www.w3.org/2000/svg" viewBox="0 0 24 24" fill="currentColor">
  <path d="M20.52 3.449A11.765 11.765 0 0 0 12.04.01C5.495.01.16 5.344.16 11.89c0 2.096.548 4.142 1.587 5.945L.06 23.99l6.29-1.652a11.882 11.882 0 0 0 5.68 1.448h.005c6.543 0 11.88-5.335 11.88-11.881a11.79 11.79 0 0 0-3.395-8.456m-8.48 18.334h-.004a9.86 9.86 0 0 1-5.026-1.378l-.36-.214-3.732.98.996-3.637-.234-.373A9.86 9.86 0 0 1 2.17 11.89c0-5.444 4.43-9.874 9.876-9.874a9.8 9.8 0 0 1 7.011 2.907 9.82 9.82 0 0 1 2.902 6.997c-.002 5.445-4.432 9.876-9.88 9.876m5.418-7.412c-.297-.149-1.758-.867-2.03-.966-.273-.099-.47-.148-.669.15-.198.297-.768.966-.941 1.164-.174.198-.347.223-.644.074-.297-.148-1.255-.462-2.39-1.475-.883-.787-1.48-1.759-1.653-2.056-.174-.297-.018-.458.13-.606.134-.133.298-.347.446-.52.149-.174.198-.298.298-.496.099-.198.05-.372-.025-.521-.075-.149-.669-1.611-.916-2.206-.242-.579-.487-.5-.669-.51l-.57-.01a1.09 1.09 0 0 0-.793.372c-.272.298-1.04 1.015-1.04 2.479s1.065 2.876 1.213 3.074c.149.198 2.095 3.2 5.076 4.487.709.306 1.263.489 1.694.626.712.227 1.36.195 1.872.118.571-.085 1.758-.719 2.006-1.413.248-.694.248-1.289.173-1.413-.074-.124-.272-.198-.57-.347"/>
</svg>
